<?xml version="1.0" encoding="UTF-8"?>
<svg xmlns="http://www.w3.org/2000/svg" xmlns:xlink="http://www.w3.org/1999/xlink" width="500pt" height="500pt" viewBox="0 0 500 500" version="1.1">
<g id="surface1">
<path style=" stroke:none;fill-rule:nonzero;fill:rgb(60.392157%,28.627451%,57.647059%);fill-opacity:1;" d="M 470.097656 147.816406 C 470.097656 139.546875 468.335938 132.085938 464.671875 125.847656 C 461.148438 119.609375 455.859375 114.457031 448.804688 110.390625 C 390.222656 76.621094 331.5 42.851562 272.917969 9.085938 C 257.050781 0 241.863281 0.273438 226.132812 9.492188 C 202.804688 23.1875 85.90625 90.179688 51.195312 110.390625 C 36.820312 118.660156 29.902344 131.40625 29.902344 147.953125 L 29.902344 351.914062 C 29.902344 360.050781 31.664062 367.238281 35.054688 373.476562 C 38.578125 379.851562 44.007812 385.273438 51.195312 389.476562 C 86.046875 409.683594 202.804688 476.539062 226.132812 490.375 C 241.863281 499.59375 257.1875 500 272.917969 490.78125 C 331.5 456.875 390.222656 423.246094 448.804688 389.476562 C 456.132812 385.273438 461.421875 379.984375 464.945312 373.476562 C 468.335938 367.238281 470.097656 360.050781 470.097656 351.914062 Z M 470.097656 147.816406 "/>
<path style=" stroke:none;fill-rule:nonzero;fill:rgb(41.568627%,8.235294%,46.666667%);fill-opacity:1;" d="M 250.542969 249.117188 L 34.78125 373.339844 C 38.308594 379.710938 43.734375 385.140625 50.921875 389.34375 C 85.773438 409.546875 202.535156 476.40625 225.859375 490.238281 C 241.59375 499.460938 256.914062 499.867188 272.648438 490.644531 C 331.234375 456.742188 389.953125 423.109375 448.535156 389.34375 C 455.859375 385.140625 461.148438 379.851562 464.671875 373.339844 Z M 250.542969 249.117188 "/>
<path style=" stroke:none;fill-rule:nonzero;fill:rgb(41.568627%,8.235294%,46.666667%);fill-opacity:1;" d="M 186.667969 285.867188 C 199.28125 307.839844 222.875 322.621094 249.867188 322.621094 C 277.125 322.621094 300.851562 307.703125 313.328125 285.460938 L 250.542969 249.117188 Z M 186.667969 285.867188 "/>
<path style=" stroke:none;fill-rule:nonzero;fill:rgb(50.588235%,18.823529%,51.764706%);fill-opacity:1;" d="M 470.097656 147.816406 C 470.097656 139.546875 468.335938 132.085938 464.671875 125.847656 L 250.542969 249.117188 L 464.945312 373.339844 C 468.335938 367.101562 470.097656 359.914062 470.097656 351.777344 Z M 470.097656 147.816406 "/>
<path style=" stroke:none;fill-rule:nonzero;fill:rgb(100%,100%,100%);fill-opacity:1;" d="M 313.328125 285.460938 C 300.855469 307.570312 277.125 322.621094 249.867188 322.621094 C 222.742188 322.621094 199.148438 307.839844 186.671875 285.867188 C 180.566406 275.15625 177.039062 262.953125 177.039062 249.796875 C 177.039062 209.523438 209.585938 176.976562 249.867188 176.976562 C 276.714844 176.976562 300.175781 191.617188 312.789062 213.320312 L 376.390625 176.703125 C 351.03125 133.035156 303.835938 103.609375 249.726562 103.609375 C 168.90625 103.609375 103.539062 169.109375 103.539062 249.796875 C 103.539062 276.242188 110.589844 301.195312 122.929688 322.621094 C 148.15625 366.421875 195.617188 395.984375 249.867188 395.984375 C 304.242188 395.984375 351.710938 366.289062 376.933594 322.214844 Z M 393.75 215.21875 L 379.238281 215.21875 L 379.238281 285.328125 L 393.75 285.328125 Z M 425.890625 215.21875 L 411.378906 215.21875 L 411.378906 285.328125 L 425.890625 285.328125 Z M 425.890625 215.21875 "/>
<path style=" stroke:none;fill-rule:nonzero;fill:rgb(100%,100%,100%);fill-opacity:1;" d="M 437.6875 227.015625 L 367.578125 227.015625 L 367.578125 241.523438 L 437.6875 241.523438 Z M 437.6875 259.019531 L 367.578125 259.019531 L 367.578125 273.53125 L 437.6875 273.53125 Z M 437.6875 259.019531 "/>
</g>
</svg>
