<?xml version="1.0" encoding="UTF-8"?>
<svg xmlns="http://www.w3.org/2000/svg" xmlns:xlink="http://www.w3.org/1999/xlink" width="500pt" height="500pt" viewBox="0 0 500 500" version="1.1">
<g id="surface1">
<rect x="0" y="0" width="500" height="500" style="fill:rgb(100%,100%,100%);fill-opacity:1;stroke:none;"/>
<path style=" stroke:none;fill-rule:evenodd;fill:rgb(19.215686%,45.490196%,72.54902%);fill-opacity:1;" d="M 208.480469 263.882812 C 208.480469 263.882812 196.539062 270.828125 216.992188 273.179688 C 241.773438 276.007812 254.429688 275.601562 281.734375 270.4375 C 281.734375 270.4375 288.921875 274.9375 298.953125 278.828125 C 237.734375 305.0625 160.402344 277.3125 208.480469 263.882812 Z M 201 229.648438 C 201 229.648438 187.601562 239.5625 208.070312 241.679688 C 234.542969 244.414062 255.4375 244.640625 291.625 237.675781 C 291.625 237.675781 296.617188 242.75 304.480469 245.515625 C 230.472656 267.164062 148.046875 247.222656 201 229.648438 Z M 201 229.648438 "/>
<path style=" stroke:none;fill-rule:evenodd;fill:rgb(79.215686%,19.215686%,19.607843%);fill-opacity:1;" d="M 264.054688 171.570312 C 279.148438 188.945312 260.101562 204.566406 260.101562 204.566406 C 260.101562 204.566406 298.402344 184.796875 280.8125 160.03125 C 264.386719 136.953125 251.789062 125.484375 319.984375 85.9375 C 319.984375 85.929688 212.929688 112.660156 264.054688 171.570312 Z M 264.054688 171.570312 "/>
<path style=" stroke:none;fill-rule:evenodd;fill:rgb(19.215686%,45.490196%,72.54902%);fill-opacity:1;" d="M 345.023438 289.203125 C 345.023438 289.203125 353.859375 296.492188 335.28125 302.128906 C 299.957031 312.828125 188.222656 316.054688 157.1875 302.554688 C 146.039062 297.695312 166.953125 290.96875 173.535156 289.546875 C 180.398438 288.0625 184.316406 288.328125 184.316406 288.328125 C 171.90625 279.59375 104.121094 305.492188 149.890625 312.917969 C 274.6875 333.15625 377.390625 303.808594 345.023438 289.203125 Z M 214.226562 194.175781 C 214.226562 194.175781 157.398438 207.679688 194.105469 212.585938 C 209.609375 214.65625 240.492188 214.179688 269.28125 211.765625 C 292.804688 209.789062 316.414062 205.570312 316.414062 205.570312 C 316.414062 205.570312 308.125 209.125 302.125 213.21875 C 244.40625 228.398438 132.921875 221.328125 165.019531 205.808594 C 192.15625 192.679688 214.226562 194.175781 214.226562 194.175781 Z M 316.179688 251.15625 C 374.847656 220.679688 347.722656 191.382812 328.78125 195.328125 C 324.15625 196.296875 322.078125 197.132812 322.078125 197.132812 C 322.078125 197.132812 323.804688 194.429688 327.085938 193.265625 C 364.546875 180.101562 393.351562 232.101562 315.007812 252.695312 C 315.007812 252.695312 315.910156 251.882812 316.179688 251.15625 Z M 316.179688 251.15625 "/>
<path style=" stroke:none;fill-rule:evenodd;fill:rgb(79.215686%,19.215686%,19.607843%);fill-opacity:1;" d="M 280.8125 22.058594 C 280.8125 22.058594 313.296875 54.5625 249.992188 104.53125 C 199.226562 144.628906 238.417969 167.484375 249.976562 193.609375 C 220.335938 166.871094 198.597656 143.332031 213.179688 121.429688 C 234.59375 89.273438 293.917969 73.683594 280.8125 22.058594 Z M 280.8125 22.058594 "/>
<path style=" stroke:none;fill-rule:evenodd;fill:rgb(19.215686%,45.490196%,72.54902%);fill-opacity:1;" d="M 220 333.773438 C 276.304688 337.375 362.78125 331.773438 364.835938 305.125 C 364.835938 305.125 360.898438 315.226562 318.296875 323.242188 C 270.234375 332.289062 210.945312 331.234375 175.789062 325.429688 C 175.789062 325.429688 182.992188 331.390625 220 333.773438 Z M 220 333.773438 "/>
<path style=" stroke:none;fill-rule:evenodd;fill:rgb(79.215686%,19.215686%,19.607843%);fill-opacity:1;" d="M 362.234375 381.5625 L 360.523438 381.5625 L 360.523438 380.601562 L 365.140625 380.601562 L 365.140625 381.5625 L 363.429688 381.5625 L 363.429688 386.351562 L 362.234375 386.351562 Z M 371.453125 381.796875 L 371.429688 381.796875 L 369.726562 386.351562 L 368.949219 386.351562 L 367.257812 381.796875 L 367.234375 381.796875 L 367.234375 386.351562 L 366.101562 386.351562 L 366.101562 380.597656 L 367.765625 380.597656 L 369.335938 384.667969 L 370.902344 380.597656 L 372.554688 380.597656 L 372.554688 386.351562 L 371.453125 386.351562 Z M 210.773438 435.578125 C 205.460938 440.179688 199.847656 442.769531 194.808594 442.769531 C 187.628906 442.769531 183.734375 438.453125 183.734375 431.554688 C 183.734375 424.078125 187.90625 418.609375 204.597656 418.609375 L 210.769531 418.609375 L 210.769531 435.578125 Z M 225.429688 452.113281 L 225.429688 400.929688 C 225.429688 387.847656 217.96875 379.214844 199.984375 379.214844 C 189.492188 379.214844 180.292969 381.804688 172.8125 385.109375 L 174.96875 394.171875 C 180.859375 392.011719 188.476562 390.007812 195.949219 390.007812 C 206.3125 390.007812 210.769531 394.171875 210.769531 402.804688 L 210.769531 409.277344 L 205.59375 409.277344 C 180.425781 409.277344 169.070312 419.039062 169.070312 433.71875 C 169.070312 446.367188 176.554688 453.558594 190.640625 453.558594 C 199.695312 453.558594 206.460938 449.820312 212.777344 444.351562 L 213.925781 452.113281 Z M 274.34375 452.113281 L 256.066406 452.113281 L 234.0625 380.515625 L 250.023438 380.515625 L 263.683594 424.515625 L 266.722656 437.734375 C 273.613281 418.609375 278.5 399.203125 280.949219 380.515625 L 296.46875 380.515625 C 292.3125 404.09375 284.828125 429.976562 274.34375 452.113281 Z M 344.476562 435.578125 C 339.148438 440.179688 333.535156 442.769531 328.507812 442.769531 C 321.328125 442.769531 317.4375 438.453125 317.4375 431.554688 C 317.4375 424.078125 321.609375 418.609375 338.292969 418.609375 L 344.476562 418.609375 Z M 359.132812 452.113281 L 359.132812 400.929688 C 359.132812 387.847656 351.652344 379.214844 333.6875 379.214844 C 323.183594 379.214844 313.988281 381.804688 306.507812 385.109375 L 308.664062 394.171875 C 314.554688 392.011719 322.183594 390.007812 329.664062 390.007812 C 340.007812 390.007812 344.472656 394.171875 344.472656 402.804688 L 344.472656 409.277344 L 339.296875 409.277344 C 314.125 409.277344 302.777344 419.039062 302.777344 433.71875 C 302.777344 446.367188 310.242188 453.558594 324.335938 453.558594 C 333.398438 453.558594 340.152344 449.820312 346.484375 444.351562 L 347.640625 452.113281 Z M 153 464.28125 C 148.820312 470.382812 142.070312 475.214844 134.683594 477.941406 L 127.445312 469.417969 C 133.070312 466.53125 137.890625 461.867188 140.132812 457.53125 C 142.070312 453.664062 142.875 448.695312 142.875 436.800781 L 142.875 355.054688 L 158.453125 355.054688 L 158.453125 435.671875 C 158.453125 451.585938 157.179688 458.015625 153 464.28125 Z M 153 464.28125 "/>
</g>
</svg>
