<?xml version="1.0" encoding="UTF-8"?>
<svg xmlns="http://www.w3.org/2000/svg" xmlns:xlink="http://www.w3.org/1999/xlink" width="500pt" height="500pt" viewBox="0 0 500 500" version="1.1">
<g id="surface1">
<path style=" stroke:none;fill-rule:nonzero;fill:rgb(100%,17.647059%,12.54902%);fill-opacity:1;" d="M 498.828125 114.078125 C 499.015625 114.742188 499.109375 115.421875 499.109375 116.109375 L 499.109375 222.78125 C 499.109375 225.570312 497.570312 228.140625 495.070312 229.53125 L 402.503906 281.074219 L 402.503906 383.242188 C 402.503906 386.023438 400.976562 388.59375 398.484375 389.992188 L 205.257812 497.578125 C 204.8125 497.820312 204.332031 497.976562 203.851562 498.140625 C 203.671875 498.195312 203.5 498.304688 203.304688 498.351562 C 201.957031 498.695312 200.539062 498.695312 199.1875 498.351562 C 198.964844 498.296875 198.765625 498.179688 198.554688 498.101562 C 198.109375 497.945312 197.648438 497.808594 197.226562 497.578125 L 4.039062 389.992188 C 1.542969 388.601562 0.00390625 386.03125 0 383.242188 L 0 63.234375 C 0 62.53125 0.101562 61.851562 0.28125 61.191406 C 0.34375 60.96875 0.484375 60.765625 0.5625 60.539062 C 0.710938 60.132812 0.851562 59.710938 1.078125 59.335938 C 1.226562 59.078125 1.445312 58.875 1.628906 58.640625 C 1.859375 58.332031 2.070312 58.011719 2.34375 57.738281 C 2.574219 57.515625 2.875 57.351562 3.136719 57.15625 C 3.429688 56.921875 3.6875 56.671875 4.023438 56.484375 L 4.03125 56.484375 L 100.628906 2.695312 C 103.117188 1.304688 106.179688 1.304688 108.671875 2.695312 L 205.265625 56.484375 L 205.289062 56.484375 C 205.609375 56.679688 205.882812 56.921875 206.171875 57.148438 C 206.433594 57.339844 206.726562 57.515625 206.953125 57.730469 C 207.238281 58.011719 207.4375 58.332031 207.679688 58.640625 C 207.851562 58.875 208.082031 59.078125 208.222656 59.335938 C 208.453125 59.722656 208.585938 60.132812 208.746094 60.539062 C 208.828125 60.765625 208.96875 60.96875 209.027344 61.203125 C 209.210938 61.863281 209.304688 62.546875 209.308594 63.234375 L 209.308594 263.109375 L 289.804688 218.28125 L 289.804688 116.101562 C 289.804688 115.421875 289.902344 114.730469 290.085938 114.078125 C 290.15625 113.84375 290.285156 113.640625 290.367188 113.417969 C 290.527344 113.007812 290.667969 112.59375 290.890625 112.210938 C 291.039062 111.960938 291.257812 111.757812 291.429688 111.523438 C 291.671875 111.210938 291.875 110.890625 292.15625 110.617188 C 292.386719 110.394531 292.679688 110.226562 292.9375 110.035156 C 293.242188 109.800781 293.5 109.546875 293.824219 109.363281 L 293.835938 109.363281 L 390.441406 55.570312 C 392.929688 54.183594 395.992188 54.183594 398.484375 55.570312 L 495.078125 109.363281 C 495.421875 109.558594 495.683594 109.800781 495.984375 110.023438 C 496.234375 110.21875 496.527344 110.394531 496.757812 110.609375 C 497.039062 110.890625 497.242188 111.210938 497.484375 111.523438 C 497.664062 111.757812 497.882812 111.960938 498.023438 112.210938 C 498.257812 112.59375 498.386719 113.007812 498.546875 113.417969 C 498.640625 113.640625 498.769531 113.84375 498.828125 114.078125 Z M 483.007812 218.28125 L 483.007812 129.578125 L 449.203125 148.398438 L 402.503906 174.40625 L 402.503906 263.109375 L 483.015625 218.28125 Z M 386.410156 378.742188 L 386.410156 289.980469 L 340.476562 315.355469 L 209.296875 387.765625 L 209.296875 477.363281 Z M 16.101562 76.695312 L 16.101562 378.742188 L 193.195312 477.351562 L 193.195312 387.773438 L 100.679688 337.132812 L 100.648438 337.113281 L 100.609375 337.09375 C 100.296875 336.917969 100.035156 336.664062 99.742188 336.453125 C 99.492188 336.257812 99.203125 336.101562 98.980469 335.890625 L 98.960938 335.859375 C 98.699219 335.617188 98.515625 335.3125 98.296875 335.042969 C 98.09375 334.78125 97.851562 334.554688 97.695312 334.28125 L 97.683594 334.253906 C 97.5 333.960938 97.390625 333.613281 97.261719 333.28125 C 97.132812 332.992188 96.960938 332.71875 96.878906 332.40625 L 96.878906 332.398438 C 96.78125 332.027344 96.757812 331.640625 96.71875 331.257812 C 96.679688 330.96875 96.597656 330.679688 96.597656 330.382812 L 96.597656 121.523438 L 49.90625 95.507812 L 16.101562 76.707031 Z M 104.65625 18.421875 L 24.171875 63.234375 L 104.640625 108.039062 L 185.113281 63.222656 L 104.640625 18.421875 Z M 146.515625 298.070312 L 193.203125 272.070312 L 193.203125 76.695312 L 159.398438 95.519531 L 112.703125 121.523438 L 112.703125 316.898438 Z M 394.460938 71.300781 L 313.984375 116.109375 L 394.460938 160.921875 L 474.925781 116.101562 Z M 386.410156 174.40625 L 339.710938 148.398438 L 305.90625 129.578125 L 305.90625 218.28125 L 352.59375 244.277344 L 386.410156 263.109375 Z M 201.234375 374.296875 L 319.273438 309.125 L 378.28125 276.554688 L 297.863281 231.773438 L 205.277344 283.328125 L 120.890625 330.316406 Z M 201.234375 374.296875 "/>
</g>
</svg>
