<svg id="Capa_1" enable-background="new 0 0 511.936 511.936" height="512" viewBox="0 0 511.936 511.936" width="512" xmlns="http://www.w3.org/2000/svg"><g><g><path d="m435.138 511.936h-358.34c-25.756 0-46.71-20.95-46.71-46.7v-151.45c0-5.392 2.784-10.434 7.471-13.101 4.667-2.655 10.286-2.678 14.912.042 1.951 1.029 55.163 28.179 203.498 28.179s201.547-27.149 203.498-28.179c4.625-2.72 10.245-2.697 14.912-.042 4.687 2.667 7.471 7.709 7.471 13.101v151.45c-.002 25.751-20.956 46.7-46.712 46.7z" fill="#964c20"/></g><path d="m435.138 511.936c25.756 0 46.71-20.95 46.71-46.7v-151.45c0-5.392-2.784-10.434-7.471-13.101-4.667-2.655-10.287-2.678-14.912.042-1.951 1.029-55.163 28.179-203.498 28.179v183.03z" fill="#793636"/><g><path d="m316.218 238.409h-120.5c-8.284 0-15-6.716-15-15v-37.375c0-20.884 16.991-37.875 37.875-37.875h74.75c20.884 0 37.875 16.991 37.875 37.875v37.375c0 8.284-6.716 15-15 15zm-105.5-30 45.25 13.483 45.25-13.483v-22.375c0-4.342-3.533-7.875-7.875-7.875h-74.75c-4.342 0-7.875 3.533-7.875 7.875z" fill="#203c5a"/></g><g><path d="m150.531 389.034c-8.284 0-15-6.716-15-15v-70.911c0-8.284 6.716-15 15-15s15 6.716 15 15v70.911c0 8.284-6.716 15-15 15z" fill="#f0d613"/></g><g><path d="m361.406 389.034c-8.284 0-15-6.716-15-15v-70.911c0-8.284 6.716-15 15-15s15 6.716 15 15v70.911c0 8.284-6.716 15-15 15z" fill="#fdba36"/></g><g><path d="m298.571 107.833c-3.839 0-7.677-1.464-10.607-4.394-8.546-8.546-19.909-13.253-31.996-13.253s-23.45 4.707-31.996 13.253c-5.858 5.858-15.356 5.858-21.213 0-5.858-5.858-5.858-15.355 0-21.213 14.213-14.213 33.11-22.041 53.21-22.041s38.997 7.828 53.21 22.041c5.857 5.858 5.857 15.355 0 21.213-2.93 2.929-6.769 4.394-10.608 4.394z" fill="#bceaf9"/></g><g><path d="m341.175 65.23c-3.839 0-7.678-1.464-10.606-4.394-41.135-41.134-108.065-41.134-149.2 0-5.858 5.858-15.355 5.857-21.213 0-5.858-5.858-5.858-15.355 0-21.213 52.831-52.831 138.795-52.831 191.626 0 5.858 5.857 5.858 15.355 0 21.213-2.93 2.929-6.768 4.394-10.607 4.394z" fill="#bceaf9"/></g><path d="m330.568 60.836c2.929 2.929 6.768 4.394 10.606 4.394s7.678-1.464 10.606-4.394c5.858-5.858 5.858-15.355 0-21.213-26.414-26.415-61.113-39.623-95.812-39.623v29.986c27.016 0 54.033 10.283 74.6 30.85z" fill="#7dd5f4"/><path d="m287.964 103.44c2.93 2.929 6.768 4.394 10.607 4.394 3.838 0 7.678-1.465 10.606-4.393 5.858-5.858 5.858-15.355 0-21.213-14.213-14.213-33.11-22.041-53.21-22.041v30c12.088-.001 23.451 4.706 31.997 13.253z" fill="#7dd5f4"/><path d="m293.343 148.159h-37.375v30h37.375c4.342 0 7.875 3.533 7.875 7.875v22.375l-45.25 13.483v16.517h60.25c8.284 0 15-6.716 15-15v-37.375c0-20.884-16.991-37.875-37.875-37.875z" fill="#082633"/><g><path d="m255.968 358.906c-160.3 0-225.88-45.12-225.88-45.12v-58.68c0-25.75 20.954-46.7 46.71-46.7h358.34c25.756 0 46.71 20.95 46.71 46.7v58.68s-65.58 45.12-225.88 45.12z" fill="#ba622e"/></g><path d="m435.138 208.406h-179.17v150.5c160.3 0 225.88-45.12 225.88-45.12v-58.68c0-25.75-20.954-46.7-46.71-46.7z" fill="#964c20"/></g></svg>