<svg id="Capa_1" enable-background="new 0 0 511.35 511.35" height="512" viewBox="0 0 511.35 511.35" width="512" xmlns="http://www.w3.org/2000/svg"><g><path d="m.749 252.048v-160.288c0-34.487 27.957-62.445 62.445-62.445h384.962c34.487 0 62.445 27.957 62.445 62.445v259.255c0 34.487-27.957 62.445-62.445 62.445h-122.495c-21.033 0-40.653-10.588-52.197-28.17l-27.991-42.628c-11.545-17.581-31.164-28.17-52.197-28.17h-130.082c-34.487.001-62.445-27.957-62.445-62.444z" fill="#df8621"/><path d="m415.177 0h-214.27c-26.498 0-47.978 21.481-47.978 47.978v284.373c0 26.498 21.481 47.978 47.978 47.978h214.27c26.498 0 47.978-21.48 47.978-47.978v-284.373c0-26.497-21.48-47.978-47.978-47.978z" fill="#dddaec"/><path d="m338.569 73.232h-214.27c-26.498 0-47.978 21.481-47.978 47.978v284.373c0 26.498 21.481 47.978 47.978 47.978h214.27c26.498 0 47.978-21.48 47.978-47.978v-284.373c0-26.498-21.48-47.978-47.978-47.978z" fill="#f1f4f6"/><path d="m510.601 288.617v160.288c0 34.487-27.957 62.445-62.445 62.445h-384.962c-34.487 0-62.445-27.957-62.445-62.445v-259.255c0-34.487 27.957-62.445 62.445-62.445h122.495c21.033 0 40.653 10.588 52.197 28.17l27.991 42.628c11.545 17.581 31.164 28.17 52.197 28.17h130.081c34.489 0 62.446 27.957 62.446 62.444z" fill="#e7a52e"/><path d="m114.031 511.347h-50.834c-34.486 0-62.448-27.962-62.448-62.448v-259.249c0-34.486 27.962-62.448 62.448-62.448h50.834c-34.486 0-62.448 27.962-62.448 62.448v259.249c0 34.486 27.962 62.448 62.448 62.448z" fill="#e49824"/><path d="m316.834 198.431c-2.325 0-4.542-1.051-6.015-2.883l-26.874-33.447c-2.67-3.322-2.14-8.179 1.183-10.849s8.181-2.139 10.848 1.182l19.541 24.32 28.261-53.173c2.001-3.762 6.672-5.194 10.435-3.192 3.764 2 5.193 6.672 3.193 10.435l-33.757 63.512c-1.322 2.508-3.98 4.104-6.815 4.095z" fill="#b3e59f"/><g fill="#ffe07d"><path d="m191.874 281.55h-131.621c-4.262 0-7.717-3.455-7.717-7.717s3.454-7.717 7.717-7.717h131.621c4.262 0 7.717 3.455 7.717 7.717-.001 4.263-3.455 7.717-7.717 7.717z"/><path d="m191.874 310.103h-131.621c-4.262 0-7.717-3.455-7.717-7.717s3.454-7.717 7.717-7.717h131.621c4.262 0 7.717 3.455 7.717 7.717-.001 4.262-3.455 7.717-7.717 7.717z"/></g></g></svg>