<?xml version="1.0" encoding="utf-8"?>
<!-- Generator: Adobe Illustrator 19.2.1, SVG Export Plug-In . SVG Version: 6.00 Build 0)  -->
<svg version="1.1" id="Capa_1" xmlns="http://www.w3.org/2000/svg" xmlns:xlink="http://www.w3.org/1999/xlink" x="0px" y="0px"
	 viewBox="0 0 841.9 595.3" style="enable-background:new 0 0 841.9 595.3;" xml:space="preserve">
<style type="text/css">
	.st0{fill:#92969D;}
	.st1{clip-path:url(#SVGID_2_);fill:url(#SVGID_3_);}
	.st2{clip-path:url(#SVGID_5_);fill:url(#SVGID_6_);}
	.st3{clip-path:url(#SVGID_8_);fill:url(#SVGID_9_);}
	.st4{clip-path:url(#SVGID_11_);fill:url(#SVGID_12_);}
	.st5{clip-path:url(#SVGID_14_);fill:url(#SVGID_15_);}
	.st6{clip-path:url(#SVGID_17_);fill:url(#SVGID_18_);}
	.st7{clip-path:url(#SVGID_20_);fill:url(#SVGID_21_);}
	.st8{clip-path:url(#SVGID_23_);fill:url(#SVGID_24_);}
	.st9{clip-path:url(#SVGID_26_);fill:url(#SVGID_27_);}
	.st10{clip-path:url(#SVGID_29_);fill:#F7D100;}
	.st11{clip-path:url(#SVGID_31_);}
	.st12{clip-path:url(#SVGID_33_);fill:url(#SVGID_34_);}
	.st13{clip-path:url(#SVGID_36_);}
	.st14{clip-path:url(#SVGID_38_);fill:url(#SVGID_39_);}
</style>
<path class="st0" d="M141.9,428.2c-0.5,1.1-1.3,2-2,2.7c-0.8,0.8-1.6,1.4-2.6,1.9c-0.9,0.4-1.9,0.7-2.8,0.7h-2c-1,0-1.8-0.3-2.5-0.7
	c-0.7-0.5-1.4-1.1-1.9-1.9c-0.5-0.7-0.8-1.7-1-2.7c-0.1-1-0.1-2.1,0.1-3.3l5.4-27h2.6l-5.4,27c-0.1,0.7-0.2,1.5-0.1,2.2
	c0.1,0.7,0.3,1.3,0.6,1.7c0.3,0.5,0.7,0.9,1.2,1.2c0.5,0.3,1.1,0.4,1.7,0.4h1.8c0.6,0,1.3-0.1,1.8-0.4c0.6-0.3,1.1-0.7,1.7-1.2
	c0.5-0.5,0.9-1.1,1.3-1.7c0.4-0.7,0.6-1.5,0.8-2.2l5.4-27h2.5l-5.4,27C142.9,426,142.5,427.1,141.9,428.2"/>
<path class="st0" d="M172.1,432.9l3.7-18.3c0.1-0.6,0.1-1.1,0.1-1.7c-0.1-0.5-0.2-1-0.5-1.4c-0.2-0.4-0.5-0.7-0.9-0.9
	c-0.4-0.2-0.8-0.4-1.3-0.4H172c-0.5,0-1,0.1-1.4,0.4c-0.4,0.3-0.9,0.5-1.3,0.9c-0.4,0.4-0.7,0.8-1.1,1.4c-0.3,0.6-0.5,1.1-0.6,1.7
	l-3.7,18.3h-2.4l3.6-18.3c0.1-0.6,0.1-1.1,0.1-1.7c-0.1-0.5-0.2-1-0.5-1.4c-0.2-0.4-0.5-0.7-0.9-0.9c-0.4-0.2-0.8-0.4-1.3-0.4h-1.2
	c-0.5,0-0.9,0.1-1.4,0.4c-0.5,0.3-0.9,0.5-1.3,0.9c-0.4,0.4-0.7,0.8-1,1.4c-0.3,0.6-0.5,1.1-0.6,1.7l-3.7,18.3h-2.4l5-25.1h0.8
	l0.8,2.6c0.7-0.9,1.6-1.7,2.5-2.2c1-0.6,1.9-0.8,2.9-0.8h0.2c1.1,0,2.1,0.3,2.8,1.1c0.8,0.7,1.3,1.6,1.5,2.8
	c0.4-0.6,0.8-1.1,1.3-1.6c0.5-0.5,0.9-0.9,1.4-1.2c0.5-0.4,1-0.6,1.6-0.8c0.6-0.1,1.2-0.3,1.7-0.3h0.2c0.8,0,1.5,0.2,2.2,0.6
	c0.6,0.4,1.2,0.9,1.6,1.6c0.4,0.7,0.7,1.4,0.8,2.4c0.1,0.9,0.1,1.8-0.1,2.8l-3.6,18.2H172.1z"/>
<path class="st0" d="M196.1,432.9l-0.8-2.5c-0.7,0.9-1.6,1.6-2.5,2.2c-1,0.5-1.9,0.8-2.9,0.8h-0.6c-0.8,0-1.5-0.2-2.2-0.6
	c-0.7-0.3-1.2-0.9-1.6-1.6c-0.4-0.6-0.7-1.4-0.8-2.4c-0.2-0.9-0.1-1.8,0.1-2.8l0.1-0.3c0.2-1,0.5-1.9,1-2.8c0.5-0.9,1-1.7,1.7-2.4
	c0.7-0.7,1.4-1.2,2.2-1.6s1.6-0.6,2.4-0.6h5.1l0.7-3.9c0.1-0.6,0.1-1.1,0.1-1.7c-0.1-0.5-0.3-1-0.5-1.4c-0.2-0.4-0.5-0.7-0.9-0.9
	c-0.4-0.2-0.8-0.4-1.3-0.4h-1.4c-0.5,0-1,0.1-1.4,0.4c-0.5,0.3-0.9,0.5-1.3,0.9c-0.4,0.4-0.7,0.8-1,1.4c-0.3,0.6-0.5,1.1-0.7,1.7
	l-0.1,0.9l-2.3-0.5l0-0.3c0.2-1,0.6-2,1-2.8c0.5-0.9,1.1-1.7,1.7-2.4c0.7-0.7,1.4-1.2,2.2-1.6c0.8-0.3,1.6-0.6,2.4-0.6h1.4
	c0.8,0,1.5,0.2,2.2,0.6c0.6,0.4,1.1,0.9,1.6,1.6c0.4,0.7,0.6,1.4,0.7,2.4c0.1,0.9,0.1,1.8-0.1,2.8l-3.6,18.2H196.1z M196.9,420.8
	h-5.1c-0.5,0-0.9,0.1-1.4,0.3c-0.5,0.3-0.9,0.5-1.3,0.9c-0.4,0.4-0.7,0.9-1,1.4c-0.3,0.5-0.5,1.1-0.6,1.7l-0.2,1
	c-0.1,0.6-0.1,1.2,0,1.6c0.1,0.6,0.2,1,0.5,1.4c0.2,0.4,0.5,0.7,0.9,0.9c0.4,0.2,0.8,0.4,1.3,0.4h1.6c0.5,0,1-0.1,1.4-0.4
	c0.5-0.3,0.9-0.6,1.3-0.9c0.4-0.4,0.7-0.8,1-1.4c0.3-0.5,0.5-1.1,0.7-1.6L196.9,420.8z"/>
<path class="st0" d="M230.3,432.9l3.7-18.3c0.1-0.6,0.1-1.1,0.1-1.7c-0.1-0.5-0.3-1-0.5-1.4c-0.2-0.4-0.6-0.7-0.9-0.9
	c-0.3-0.2-0.8-0.4-1.3-0.4h-1.6c-0.5,0-1,0.1-1.4,0.4c-0.5,0.3-0.9,0.5-1.3,0.9c-0.4,0.4-0.7,0.8-1,1.4c-0.3,0.6-0.4,1.1-0.6,1.7
	l-3.7,18.3h-2.4l5-25.1h0.8l0.8,2.6c0.7-0.9,1.6-1.7,2.5-2.2c1-0.6,1.9-0.8,2.9-0.8h0.6c0.8,0,1.5,0.2,2.2,0.6
	c0.7,0.4,1.2,0.9,1.6,1.6c0.4,0.7,0.7,1.4,0.8,2.4c0.1,0.9,0.1,1.8-0.1,2.8l-3.6,18.2H230.3z"/>
<path class="st0" d="M255.5,428.9c-0.5,0.9-1.1,1.7-1.7,2.4c-0.7,0.7-1.4,1.2-2.2,1.6c-0.8,0.4-1.6,0.6-2.4,0.6h-1.6
	c-0.8,0-1.5-0.2-2.1-0.6c-0.6-0.3-1.2-0.9-1.6-1.6c-0.4-0.6-0.7-1.4-0.8-2.4c-0.1-0.9-0.1-1.8,0.1-2.8l2.2-11.3c0.2-1,0.5-2,1-2.8
	c0.5-0.9,1-1.7,1.7-2.4c0.6-0.7,1.4-1.2,2.2-1.6c0.8-0.3,1.7-0.6,2.4-0.6h1.6c0.9,0,1.5,0.2,2.2,0.6c0.7,0.4,1.2,0.9,1.6,1.6
	c0.4,0.7,0.7,1.4,0.8,2.4c0.1,0.9,0.1,1.8-0.1,2.8l-2.3,11.3C256.3,427.1,256,428,255.5,428.9 M256.4,414.6c0.1-0.6,0.2-1.1,0.1-1.7
	c-0.1-0.5-0.2-1-0.5-1.4c-0.2-0.4-0.5-0.7-0.9-0.9c-0.4-0.2-0.8-0.4-1.3-0.4h-1.6c-0.5,0-0.9,0.1-1.4,0.4c-0.5,0.3-0.9,0.5-1.3,0.9
	c-0.4,0.4-0.7,0.8-1,1.4c-0.3,0.6-0.5,1.1-0.6,1.7l-2.3,11.6c-0.1,0.6-0.1,1.2-0.1,1.7c0.1,0.6,0.3,1,0.5,1.4
	c0.2,0.4,0.6,0.7,0.9,0.9c0.4,0.2,0.8,0.4,1.3,0.4h1.6c0.5,0,0.9-0.1,1.4-0.4c0.5-0.3,0.9-0.6,1.3-0.9c0.4-0.4,0.7-0.8,1-1.4
	c0.3-0.5,0.5-1.1,0.6-1.7L256.4,414.6z"/>
<polygon class="st0" points="270.5,432.9 269.3,432.9 267.2,407.8 269.6,407.8 271,426.9 270.8,428.2 271.2,426.9 280.2,407.8 
	282.6,407.8 "/>
<path class="st0" d="M297.1,432.9l-0.8-2.5c-0.7,0.9-1.5,1.6-2.5,2.2c-0.9,0.5-1.8,0.8-2.9,0.8h-0.6c-0.8,0-1.6-0.2-2.2-0.6
	c-0.6-0.3-1.1-0.9-1.5-1.6c-0.4-0.6-0.6-1.4-0.8-2.4c-0.1-0.9-0.1-1.8,0.1-2.8l0-0.3c0.2-1,0.6-1.9,1-2.8c0.5-0.9,1.1-1.7,1.7-2.4
	c0.7-0.7,1.4-1.2,2.2-1.6c0.8-0.4,1.6-0.6,2.4-0.6h5.1l0.8-3.9c0.1-0.6,0.1-1.1,0.1-1.7c-0.1-0.5-0.2-1-0.5-1.4
	c-0.2-0.4-0.5-0.7-0.9-0.9c-0.4-0.2-0.8-0.4-1.3-0.4h-1.4c-0.5,0-1,0.1-1.5,0.4c-0.5,0.3-0.9,0.5-1.3,0.9c-0.4,0.4-0.7,0.8-1,1.4
	c-0.3,0.6-0.5,1.1-0.6,1.7l-0.2,0.9l-2.3-0.5l0-0.3c0.2-1,0.5-2,1.1-2.8c0.4-0.9,1-1.7,1.7-2.4c0.6-0.7,1.4-1.2,2.2-1.6
	c0.8-0.3,1.6-0.6,2.4-0.6h1.4c0.9,0,1.6,0.2,2.2,0.6c0.6,0.4,1.2,0.9,1.6,1.6c0.4,0.7,0.6,1.4,0.8,2.4c0.1,0.9,0.1,1.8-0.1,2.8
	l-3.6,18.2H297.1z M298,420.8h-5.1c-0.5,0-0.9,0.1-1.4,0.3c-0.5,0.3-0.9,0.5-1.3,0.9c-0.4,0.4-0.7,0.9-1,1.4
	c-0.3,0.5-0.5,1.1-0.6,1.7l-0.3,1c-0.1,0.6-0.2,1.2-0.1,1.6c0.1,0.6,0.3,1,0.5,1.4c0.2,0.4,0.5,0.7,0.9,0.9c0.4,0.2,0.8,0.4,1.3,0.4
	h1.6c0.5,0,1-0.1,1.4-0.4c0.5-0.3,0.9-0.6,1.3-0.9c0.4-0.4,0.7-0.8,1-1.4c0.3-0.5,0.5-1.1,0.6-1.6L298,420.8z"/>
<path class="st0" d="M333.7,400.7c-0.4,0-0.8,0.1-1.2,0.3c-0.4,0.2-0.7,0.5-1.1,0.8c-0.3,0.3-0.6,0.7-0.9,1.2
	c-0.2,0.4-0.4,0.9-0.5,1.4l-0.7,3.5h4.7l-0.6,2.9h-4.7l-4.4,22.2H322l4.4-22.2h-3.6l0.5-2.9h3.6l0.7-3.3c0.2-0.9,0.5-1.8,0.9-2.6
	c0.4-0.8,0.9-1.5,1.5-2.1c0.6-0.6,1.3-1.1,2-1.4c0.7-0.4,1.4-0.5,2.1-0.5h2.2l-0.6,2.8H333.7z"/>
<path class="st0" d="M349.9,428.9c-0.5,0.9-1.1,1.7-1.7,2.4c-0.7,0.7-1.4,1.2-2.2,1.6c-0.8,0.4-1.6,0.6-2.4,0.6H342
	c-0.8,0-1.5-0.2-2.2-0.6c-0.7-0.3-1.2-0.9-1.6-1.6c-0.4-0.6-0.7-1.4-0.8-2.4c-0.1-0.9-0.1-1.8,0.1-2.8l2.2-11.3c0.2-1,0.6-2,1-2.8
	c0.5-0.9,1.1-1.7,1.7-2.4c0.7-0.7,1.4-1.2,2.2-1.6c0.8-0.3,1.6-0.6,2.4-0.6h1.6c0.8,0,1.5,0.2,2.2,0.6c0.6,0.4,1.1,0.9,1.5,1.6
	c0.4,0.7,0.7,1.4,0.8,2.4c0.1,0.9,0.1,1.8-0.1,2.8l-2.2,11.3C350.7,427.1,350.3,428,349.9,428.9 M350.8,414.6
	c0.1-0.6,0.2-1.1,0.1-1.7c-0.1-0.5-0.3-1-0.5-1.4c-0.2-0.4-0.5-0.7-0.9-0.9c-0.4-0.2-0.8-0.4-1.3-0.4h-1.6c-0.5,0-1,0.1-1.5,0.4
	c-0.5,0.3-0.9,0.5-1.3,0.9c-0.4,0.4-0.7,0.8-1,1.4c-0.3,0.6-0.5,1.1-0.6,1.7l-2.4,11.6c-0.1,0.6-0.1,1.2,0,1.7c0,0.6,0.2,1,0.5,1.4
	c0.2,0.4,0.5,0.7,0.9,0.9c0.4,0.2,0.8,0.4,1.3,0.4h1.6c0.5,0,1-0.1,1.5-0.4c0.5-0.3,0.9-0.6,1.3-0.9c0.4-0.4,0.7-0.8,1-1.4
	c0.3-0.5,0.5-1.1,0.6-1.7L350.8,414.6z"/>
<path class="st0" d="M368.9,410.8c-0.5,0-1,0.1-1.4,0.3c-0.5,0.2-0.9,0.6-1.3,0.9c-0.4,0.4-0.7,0.9-1,1.4c-0.3,0.5-0.5,1.1-0.6,1.7
	l-3.5,17.8h-2.4l5-25.1h0.8l0.8,2.6c0.7-0.9,1.6-1.7,2.5-2.2c0.9-0.6,1.9-0.8,2.9-0.8h1.4l-0.7,3.4H368.9z"/>
<path class="st0" d="M395.4,432.9l3.7-18.3c0.1-0.6,0.1-1.1,0-1.7c-0.1-0.5-0.2-1-0.5-1.4c-0.2-0.4-0.5-0.7-0.9-0.9
	c-0.4-0.2-0.8-0.4-1.3-0.4h-1.2c-0.5,0-1,0.1-1.4,0.4c-0.5,0.3-0.9,0.5-1.3,0.9c-0.4,0.4-0.7,0.8-1,1.4c-0.3,0.6-0.5,1.1-0.6,1.7
	l-3.7,18.3h-2.4l3.6-18.3c0.1-0.6,0.1-1.1,0.1-1.7c-0.1-0.5-0.2-1-0.5-1.4c-0.3-0.4-0.6-0.7-1-0.9c-0.4-0.2-0.8-0.4-1.3-0.4h-1.2
	c-0.5,0-1,0.1-1.4,0.4c-0.5,0.3-0.9,0.5-1.3,0.9c-0.4,0.4-0.7,0.8-1,1.4c-0.3,0.6-0.5,1.1-0.6,1.7l-3.7,18.3h-2.4l5-25.1h0.8
	l0.8,2.6c0.7-0.9,1.6-1.7,2.5-2.2c0.9-0.6,1.9-0.8,2.9-0.8h0.2c1.1,0,2.1,0.3,2.9,1.1c0.8,0.7,1.3,1.6,1.6,2.8
	c0.3-0.6,0.8-1.1,1.2-1.6c0.5-0.5,1-0.9,1.5-1.2c0.5-0.4,1-0.6,1.6-0.8c0.6-0.1,1.1-0.3,1.7-0.3h0.2c0.8,0,1.5,0.2,2.1,0.6
	c0.6,0.4,1.2,0.9,1.6,1.6c0.4,0.7,0.7,1.4,0.8,2.4c0.1,0.9,0.1,1.8-0.1,2.8l-3.6,18.2H395.4z"/>
<path class="st0" d="M419.5,432.9l-0.9-2.5c-0.7,0.9-1.5,1.6-2.5,2.2c-0.9,0.5-1.9,0.8-2.8,0.8h-0.6c-0.8,0-1.5-0.2-2.2-0.6
	c-0.6-0.3-1.1-0.9-1.6-1.6c-0.4-0.6-0.7-1.4-0.8-2.4c-0.1-0.9-0.1-1.8,0.1-2.8l0.1-0.3c0.2-1,0.5-1.9,1-2.8c0.5-0.9,1.1-1.7,1.7-2.4
	c0.7-0.7,1.4-1.2,2.2-1.6c0.8-0.4,1.6-0.6,2.4-0.6h5.1l0.8-3.9c0.1-0.6,0.1-1.1,0.1-1.7c-0.1-0.5-0.3-1-0.5-1.4
	c-0.2-0.4-0.5-0.7-0.9-0.9c-0.4-0.2-0.8-0.4-1.3-0.4h-1.4c-0.5,0-0.9,0.1-1.4,0.4c-0.5,0.3-0.9,0.5-1.3,0.9c-0.4,0.4-0.7,0.8-1,1.4
	c-0.3,0.6-0.5,1.1-0.6,1.7l-0.2,0.9l-2.3-0.5l0-0.3c0.2-1,0.5-2,1.1-2.8c0.5-0.9,1-1.7,1.7-2.4c0.7-0.7,1.4-1.2,2.2-1.6
	c0.7-0.3,1.6-0.6,2.4-0.6h1.4c0.8,0,1.5,0.2,2.2,0.6c0.7,0.4,1.2,0.9,1.6,1.6c0.4,0.7,0.7,1.4,0.8,2.4c0.2,0.9,0.1,1.8-0.1,2.8
	l-3.6,18.2H419.5z M420.3,420.8h-5.1c-0.5,0-0.9,0.1-1.4,0.3c-0.5,0.3-0.9,0.5-1.3,0.9c-0.4,0.4-0.7,0.9-1,1.4
	c-0.3,0.5-0.5,1.1-0.6,1.7l-0.2,1c-0.1,0.6-0.1,1.2-0.1,1.6c0.1,0.6,0.2,1,0.5,1.4c0.2,0.4,0.6,0.7,0.9,0.9c0.4,0.2,0.8,0.4,1.3,0.4
	h1.6c0.5,0,1-0.1,1.4-0.4c0.5-0.3,0.9-0.6,1.3-0.9c0.3-0.4,0.7-0.8,1-1.4c0.3-0.5,0.5-1.1,0.6-1.6L420.3,420.8z"/>
<path class="st0" d="M455.3,432.9l-0.8-2.6c-0.7,0.9-1.6,1.7-2.5,2.3c-0.9,0.5-1.8,0.8-2.9,0.8h-0.6c-0.8,0-1.5-0.2-2.2-0.6
	c-0.6-0.3-1.2-0.9-1.6-1.6c-0.4-0.6-0.7-1.4-0.8-2.4c-0.1-0.9-0.1-1.8,0.1-2.8l2.3-11.3c0.2-1,0.6-2,1-2.8c0.5-0.9,1.1-1.7,1.7-2.4
	c0.7-0.7,1.4-1.2,2.2-1.6c0.8-0.3,1.6-0.6,2.4-0.6h0.6c0.9,0,1.7,0.2,2.3,0.7c0.7,0.5,1.2,1.1,1.6,1.9l2.4-12.1h2.4l-7,35.1H455.3z
	 M457.3,414.6c0.1-0.6,0.2-1.1,0.1-1.7c-0.1-0.5-0.2-1-0.4-1.4c-0.3-0.4-0.6-0.7-0.9-0.9c-0.4-0.2-0.8-0.4-1.3-0.4h-1.6
	c-0.5,0-1,0.1-1.5,0.4c-0.5,0.3-0.9,0.5-1.3,0.9c-0.4,0.4-0.7,0.8-1,1.4c-0.3,0.6-0.5,1.1-0.6,1.7l-2.3,11.6
	c-0.1,0.6-0.2,1.2-0.1,1.7c0.1,0.6,0.2,1,0.4,1.4c0.2,0.4,0.6,0.7,0.9,0.9c0.4,0.2,0.8,0.4,1.3,0.4h1.6c0.5,0,0.9-0.1,1.4-0.4
	c0.5-0.3,0.9-0.6,1.3-0.9c0.4-0.4,0.7-0.8,1-1.4c0.3-0.5,0.5-1.1,0.6-1.7L457.3,414.6z"/>
<path class="st0" d="M478.8,428.9c-0.5,0.9-1.1,1.7-1.7,2.4c-0.7,0.7-1.4,1.2-2.2,1.6c-0.8,0.4-1.6,0.6-2.4,0.6h-1.6
	c-0.8,0-1.6-0.2-2.2-0.6c-0.6-0.3-1.1-0.9-1.5-1.6c-0.4-0.6-0.7-1.4-0.8-2.4c-0.1-0.9-0.1-1.8,0.1-2.8l2.2-11.3c0.2-1,0.6-2,1-2.8
	c0.5-0.9,1-1.7,1.7-2.4c0.7-0.7,1.5-1.2,2.2-1.6c0.8-0.3,1.6-0.6,2.4-0.6h1.6c0.8,0,1.5,0.2,2.2,0.6c0.7,0.4,1.2,0.9,1.6,1.6
	c0.4,0.7,0.6,1.4,0.8,2.4c0.1,0.9,0.1,1.8-0.1,2.8l-1.1,5.9h-11l-1.1,5.5c-0.1,0.6-0.1,1.2-0.1,1.7c0.1,0.6,0.2,1,0.5,1.4
	c0.2,0.4,0.5,0.7,0.9,0.9c0.4,0.2,0.8,0.4,1.3,0.4h1.6c0.5,0,1-0.1,1.4-0.4c0.5-0.3,0.9-0.6,1.3-0.9c0.4-0.4,0.7-0.8,1-1.4
	c0.3-0.5,0.5-1.1,0.6-1.7l0.3-1.6l2.3,0.5l-0.2,1C479.7,427.1,479.3,428,478.8,428.9 M479.7,414.6c0.1-0.6,0.1-1.1,0.1-1.7
	c-0.1-0.5-0.2-1-0.5-1.4c-0.2-0.4-0.5-0.7-0.9-0.9c-0.4-0.2-0.8-0.4-1.3-0.4h-1.6c-0.5,0-1,0.1-1.4,0.4c-0.5,0.3-0.9,0.5-1.3,0.9
	c-0.4,0.4-0.7,0.8-1,1.4c-0.3,0.6-0.5,1.1-0.6,1.7l-0.7,3.7h8.6L479.7,414.6z"/>
<path class="st0" d="M514.7,428.9c-0.5,0.9-1.1,1.7-1.7,2.4c-0.7,0.7-1.4,1.2-2.2,1.6c-0.8,0.4-1.6,0.6-2.4,0.6h-1.6
	c-0.8,0-1.5-0.2-2.2-0.6c-0.6-0.3-1.2-0.9-1.6-1.6c-0.4-0.6-0.6-1.4-0.8-2.4c-0.1-0.9-0.1-1.8,0.1-2.8l2.2-11.3c0.2-1,0.6-2,1-2.8
	c0.4-0.9,1.1-1.7,1.7-2.4c0.7-0.7,1.4-1.2,2.2-1.6c0.8-0.3,1.6-0.6,2.4-0.6h1.7c0.8,0,1.5,0.2,2.2,0.6c0.6,0.4,1.1,0.9,1.5,1.6
	c0.4,0.7,0.7,1.4,0.8,2.4c0.1,0.9,0.1,1.8-0.1,2.8l-1.2,5.9h-11l-1.1,5.5c-0.1,0.6-0.1,1.2-0.1,1.7c0.1,0.6,0.3,1,0.5,1.4
	c0.2,0.4,0.5,0.7,0.9,0.9c0.4,0.2,0.8,0.4,1.3,0.4h1.6c0.5,0,0.9-0.1,1.4-0.4c0.5-0.3,0.9-0.6,1.3-0.9c0.4-0.4,0.7-0.8,1-1.4
	c0.3-0.5,0.5-1.1,0.6-1.7l0.3-1.6l2.3,0.5l-0.2,1C515.5,427.1,515.2,428,514.7,428.9 M515.6,414.6c0.1-0.6,0.1-1.1,0.1-1.7
	c-0.1-0.5-0.2-1-0.5-1.4c-0.2-0.4-0.5-0.7-0.9-0.9c-0.4-0.2-0.8-0.4-1.3-0.4h-1.6c-0.5,0-1,0.1-1.4,0.4c-0.4,0.3-0.9,0.5-1.3,0.9
	c-0.4,0.4-0.7,0.8-1,1.4c-0.3,0.6-0.5,1.1-0.6,1.7l-0.7,3.7h8.6L515.6,414.6z"/>
<path class="st0" d="M534.3,432.9l3.6-18.3c0.1-0.6,0.1-1.1,0.1-1.7c-0.1-0.5-0.2-1-0.5-1.4c-0.2-0.4-0.6-0.7-0.9-0.9
	c-0.4-0.2-0.8-0.4-1.3-0.4h-1.6c-0.5,0-1,0.1-1.4,0.4c-0.5,0.3-0.9,0.5-1.3,0.9c-0.3,0.4-0.7,0.8-1,1.4c-0.3,0.6-0.5,1.1-0.6,1.7
	l-3.6,18.3h-2.4l5-25.1h0.8l0.8,2.6c0.7-0.9,1.6-1.7,2.5-2.2c0.9-0.6,1.9-0.8,2.8-0.8h0.6c0.8,0,1.5,0.2,2.2,0.6
	c0.6,0.4,1.2,0.9,1.6,1.6c0.4,0.7,0.7,1.4,0.8,2.4c0.1,0.9,0.1,1.8-0.1,2.8l-3.6,18.2H534.3z"/>
<path class="st0" d="M553,432.9c-0.7,0-1.4-0.2-2-0.5c-0.6-0.3-1-0.8-1.4-1.4c-0.3-0.6-0.6-1.3-0.7-2.1c-0.1-0.8-0.1-1.7,0.1-2.6
	l3.1-15.6h-3.6l0.6-2.9h3.6l1.2-5.9l2.5-0.5l-1.3,6.4h5.1l-0.6,2.9h-5.1l-3.1,15.7c-0.1,0.6-0.1,1,0,1.4c0.1,0.4,0.2,0.8,0.4,1.1
	c0.2,0.3,0.5,0.6,0.8,0.8c0.3,0.1,0.7,0.3,1.1,0.3h2.2l-0.6,2.8H553z"/>
<path class="st0" d="M577.6,428.9c-0.5,0.9-1.1,1.7-1.7,2.4c-0.6,0.7-1.4,1.2-2.2,1.6c-0.8,0.4-1.6,0.6-2.4,0.6h-1.6
	c-0.8,0-1.5-0.2-2.2-0.6c-0.7-0.3-1.2-0.9-1.5-1.6c-0.4-0.6-0.7-1.4-0.8-2.4c-0.1-0.9-0.1-1.8,0.1-2.8l2.3-11.3c0.2-1,0.6-2,1-2.8
	c0.5-0.9,1.1-1.7,1.7-2.4c0.7-0.7,1.4-1.2,2.2-1.6c0.8-0.3,1.6-0.6,2.4-0.6h1.6c0.8,0,1.5,0.2,2.2,0.6c0.6,0.4,1.2,0.9,1.5,1.6
	c0.4,0.7,0.7,1.4,0.8,2.4c0.1,0.9,0.1,1.8-0.1,2.8l-1.2,5.9h-11l-1.1,5.5c-0.1,0.6-0.1,1.2-0.1,1.7c0.1,0.6,0.3,1,0.5,1.4
	c0.3,0.4,0.5,0.7,0.9,0.9c0.4,0.2,0.8,0.4,1.3,0.4h1.6c0.5,0,1-0.1,1.4-0.4c0.5-0.3,0.9-0.6,1.3-0.9c0.4-0.4,0.7-0.8,1-1.4
	c0.3-0.5,0.5-1.1,0.7-1.7l0.3-1.6l2.3,0.5l-0.2,1C578.4,427.1,578.1,428,577.6,428.9 M578.5,414.6c0.1-0.6,0.1-1.1,0-1.7
	c-0.1-0.5-0.2-1-0.5-1.4c-0.2-0.4-0.6-0.7-0.9-0.9c-0.4-0.2-0.8-0.4-1.3-0.4h-1.6c-0.5,0-1,0.1-1.4,0.4c-0.5,0.3-0.9,0.5-1.3,0.9
	c-0.4,0.4-0.7,0.8-1,1.4c-0.3,0.6-0.5,1.1-0.6,1.7l-0.7,3.7h8.6L578.5,414.6z"/>
<path class="st0" d="M597.3,432.9l3.7-18.3c0.1-0.6,0.1-1.1,0.1-1.7c-0.1-0.5-0.2-1-0.5-1.4c-0.2-0.4-0.5-0.7-0.9-0.9
	c-0.4-0.2-0.8-0.4-1.3-0.4h-1.6c-0.5,0-1,0.1-1.4,0.4c-0.5,0.3-0.9,0.5-1.3,0.9c-0.4,0.4-0.7,0.8-1,1.4c-0.3,0.6-0.5,1.1-0.6,1.7
	l-3.7,18.3h-2.4l5-25.1h0.8l0.8,2.6c0.7-0.9,1.6-1.7,2.5-2.2c1-0.6,1.9-0.8,2.9-0.8h0.6c0.8,0,1.5,0.2,2.2,0.6
	c0.7,0.4,1.2,0.9,1.6,1.6c0.4,0.7,0.7,1.4,0.8,2.4c0.1,0.9,0.1,1.8-0.1,2.8l-3.6,18.2H597.3z"/>
<path class="st0" d="M621.3,432.9l-0.8-2.6c-0.7,0.9-1.6,1.7-2.5,2.3c-1,0.5-1.9,0.8-2.9,0.8h-0.6c-0.8,0-1.5-0.2-2.2-0.6
	c-0.7-0.3-1.2-0.9-1.6-1.6c-0.4-0.6-0.7-1.4-0.8-2.4c-0.1-0.9-0.1-1.8,0.1-2.8l2.2-11.3c0.2-1,0.6-2,1-2.8c0.5-0.9,1-1.7,1.7-2.4
	c0.6-0.7,1.4-1.2,2.2-1.6c0.8-0.3,1.6-0.6,2.4-0.6h0.6c0.9,0,1.7,0.2,2.4,0.7c0.7,0.5,1.2,1.1,1.6,1.9l2.4-12.1h2.4l-7,35.1H621.3z
	 M623.4,414.6c0.1-0.6,0.1-1.1,0-1.7c-0.1-0.5-0.2-1-0.5-1.4c-0.2-0.4-0.5-0.7-0.9-0.9c-0.4-0.2-0.8-0.4-1.3-0.4h-1.6
	c-0.4,0-0.9,0.1-1.4,0.4c-0.5,0.3-0.9,0.5-1.3,0.9c-0.4,0.4-0.7,0.8-1,1.4c-0.3,0.6-0.5,1.1-0.6,1.7l-2.3,11.6
	c-0.1,0.6-0.1,1.2-0.1,1.7c0.1,0.6,0.3,1,0.5,1.4c0.2,0.4,0.5,0.7,0.9,0.9c0.4,0.2,0.8,0.4,1.3,0.4h1.6c0.5,0,0.9-0.1,1.4-0.4
	c0.5-0.3,0.9-0.6,1.3-0.9c0.4-0.4,0.7-0.8,1-1.4c0.3-0.5,0.5-1.1,0.7-1.7L623.4,414.6z"/>
<path class="st0" d="M644.8,428.9c-0.5,0.9-1.1,1.7-1.8,2.4c-0.6,0.7-1.4,1.2-2.1,1.6c-0.8,0.4-1.6,0.6-2.4,0.6h-1.6
	c-0.8,0-1.6-0.2-2.2-0.6c-0.6-0.3-1.1-0.9-1.5-1.6c-0.4-0.6-0.7-1.4-0.8-2.4c-0.1-0.9-0.1-1.8,0.1-2.8l2.3-11.3c0.2-1,0.5-2,1-2.8
	c0.5-0.9,1-1.7,1.7-2.4c0.7-0.7,1.4-1.2,2.2-1.6c0.8-0.3,1.6-0.6,2.4-0.6h1.6c0.8,0,1.5,0.2,2.2,0.6c0.7,0.4,1.2,0.9,1.6,1.6
	c0.4,0.7,0.7,1.4,0.8,2.4c0.1,0.9,0.1,1.8-0.1,2.8l-1.2,5.9H636l-1.1,5.5c-0.1,0.6-0.1,1.2,0,1.7c0.1,0.6,0.2,1,0.4,1.4
	c0.2,0.4,0.6,0.7,0.9,0.9c0.4,0.2,0.8,0.4,1.3,0.4h1.6c0.4,0,0.9-0.1,1.4-0.4c0.5-0.3,0.9-0.6,1.3-0.9c0.4-0.4,0.7-0.8,1-1.4
	c0.3-0.5,0.5-1.1,0.6-1.7l0.4-1.6l2.3,0.5l-0.2,1C645.7,427.1,645.3,428,644.8,428.9 M645.7,414.6c0.1-0.6,0.1-1.1,0.1-1.7
	c-0.1-0.5-0.3-1-0.5-1.4c-0.2-0.4-0.6-0.7-0.9-0.9c-0.4-0.2-0.8-0.4-1.3-0.4h-1.6c-0.5,0-1,0.1-1.4,0.4c-0.5,0.3-0.9,0.5-1.3,0.9
	c-0.4,0.4-0.7,0.8-1,1.4c-0.3,0.6-0.5,1.1-0.6,1.7l-0.7,3.7h8.6L645.7,414.6z"/>
<path class="st0" d="M663.8,410.8c-0.5,0-0.9,0.1-1.4,0.3c-0.5,0.2-0.9,0.6-1.3,0.9c-0.4,0.4-0.7,0.9-1,1.4
	c-0.3,0.5-0.5,1.1-0.6,1.7l-3.6,17.8h-2.4l5-25.1h0.8l0.8,2.6c0.7-0.9,1.6-1.7,2.5-2.2c0.9-0.6,1.9-0.8,2.9-0.8h1.4l-0.6,3.4H663.8z
	"/>
<path class="st0" d="M695.2,432.9l-0.8-2.5c-0.7,0.9-1.5,1.6-2.5,2.2c-0.9,0.5-1.9,0.8-2.9,0.8h-0.6c-0.8,0-1.6-0.2-2.2-0.6
	c-0.6-0.3-1.2-0.9-1.6-1.6c-0.4-0.6-0.7-1.4-0.8-2.4c-0.1-0.9-0.1-1.8,0.1-2.8l0.1-0.3c0.2-1,0.5-1.9,1-2.8c0.5-0.9,1.1-1.7,1.7-2.4
	c0.7-0.7,1.4-1.2,2.2-1.6c0.8-0.4,1.6-0.6,2.4-0.6h5.1l0.8-3.9c0.1-0.6,0.2-1.1,0.1-1.7c-0.1-0.5-0.2-1-0.5-1.4
	c-0.3-0.4-0.6-0.7-1-0.9c-0.4-0.2-0.8-0.4-1.3-0.4h-1.4c-0.5,0-1,0.1-1.4,0.4c-0.5,0.3-0.9,0.5-1.3,0.9c-0.4,0.4-0.7,0.8-1,1.4
	c-0.3,0.6-0.5,1.1-0.6,1.7l-0.2,0.9l-2.3-0.5l0-0.3c0.2-1,0.5-2,1-2.8c0.5-0.9,1.1-1.7,1.7-2.4c0.7-0.7,1.4-1.2,2.2-1.6
	c0.8-0.3,1.6-0.6,2.4-0.6h1.4c0.8,0,1.5,0.2,2.2,0.6c0.6,0.4,1.1,0.9,1.6,1.6c0.4,0.7,0.6,1.4,0.8,2.4c0.1,0.9,0.1,1.8-0.1,2.8
	l-3.6,18.2H695.2z M696.1,420.8H691c-0.5,0-1,0.1-1.4,0.3c-0.5,0.3-0.9,0.5-1.3,0.9c-0.4,0.4-0.7,0.9-1,1.4
	c-0.3,0.5-0.5,1.1-0.6,1.7l-0.3,1c-0.1,0.6-0.1,1.2,0,1.6c0.1,0.6,0.2,1,0.5,1.4c0.2,0.4,0.5,0.7,0.9,0.9c0.4,0.2,0.8,0.4,1.3,0.4
	h1.6c0.5,0,1-0.1,1.4-0.4c0.5-0.3,0.9-0.6,1.3-0.9c0.4-0.4,0.7-0.8,1-1.4c0.3-0.5,0.5-1.1,0.6-1.6L696.1,420.8z"/>
<path class="st0" d="M720.1,426.6c-0.2,1.1-0.5,2-1,2.8c-0.5,0.9-1.1,1.5-1.8,2.1c-0.7,0.6-1.4,1.1-2.2,1.4
	c-0.8,0.3-1.6,0.5-2.4,0.5H711c-0.8,0-1.5-0.2-2.2-0.6c-0.7-0.3-1.2-0.9-1.6-1.6c-0.4-0.6-0.7-1.4-0.9-2.4c-0.2-0.9-0.1-1.8,0.1-2.8
	l0.2-1l2.5-0.5l-0.3,1.7c-0.1,0.6-0.1,1.2,0,1.6c0.1,0.6,0.3,1,0.5,1.4c0.3,0.4,0.6,0.7,1,0.9c0.4,0.2,0.8,0.4,1.3,0.4h1.6
	c0.5,0,1-0.1,1.4-0.3c0.5-0.1,0.9-0.4,1.3-0.7c0.4-0.3,0.8-0.8,1.1-1.2c0.3-0.5,0.5-1,0.6-1.7c0.2-0.9,0.2-1.6,0-2.1
	c-0.2-0.6-0.5-1.1-1-1.5c-0.4-0.4-1-0.7-1.6-0.9c-0.6-0.3-1.2-0.5-1.9-0.7c-0.7-0.3-1.2-0.6-1.8-0.9c-0.6-0.3-1.1-0.7-1.6-1.3
	c-0.4-0.5-0.7-1.2-0.8-2c-0.1-0.8-0.1-1.8,0.1-3c0.2-1.1,0.5-1.9,1-2.8c0.5-0.8,1.1-1.5,1.7-2.1c0.6-0.7,1.4-1.1,2.1-1.5
	c0.8-0.3,1.6-0.5,2.4-0.5h1.4c0.8,0,1.5,0.2,2.2,0.6c0.6,0.4,1.2,0.9,1.6,1.6c0.4,0.7,0.7,1.4,0.8,2.4c0.1,0.9,0.1,1.8-0.1,2.8
	l0,0.1l-2.5,0.5l0.2-0.7c0.1-0.6,0.1-1.1,0-1.7c-0.1-0.5-0.2-1-0.5-1.4c-0.2-0.4-0.5-0.7-0.9-0.9c-0.4-0.2-0.8-0.4-1.3-0.4h-1.4
	c-0.5,0-1,0.1-1.4,0.3c-0.5,0.2-0.9,0.4-1.3,0.8c-0.4,0.4-0.7,0.8-1,1.3c-0.2,0.5-0.5,0.9-0.6,1.6c-0.2,0.9-0.1,1.6,0.1,2.1
	c0.2,0.5,0.5,1,1,1.4c0.4,0.4,1,0.7,1.6,1c0.6,0.2,1.2,0.5,1.8,0.7c0.6,0.3,1.2,0.6,1.8,0.9c0.6,0.4,1.1,0.8,1.5,1.3
	c0.5,0.5,0.7,1.2,0.9,2.1C720.4,424.4,720.4,425.4,720.1,426.6"/>
<path class="st0" d="M751.4,410.8c-0.5,0-1,0.1-1.4,0.3c-0.5,0.2-0.9,0.6-1.3,0.9c-0.4,0.4-0.8,0.9-1,1.4c-0.3,0.5-0.5,1.1-0.6,1.7
	l-3.5,17.8h-2.4l5-25.1h0.8l0.8,2.6c0.7-0.9,1.6-1.7,2.5-2.2c0.9-0.6,1.9-0.8,2.9-0.8h1.4l-0.7,3.4H751.4z"/>
<path class="st0" d="M770.6,428.9c-0.5,0.9-1,1.7-1.7,2.4c-0.7,0.7-1.4,1.2-2.2,1.6c-0.8,0.4-1.6,0.6-2.4,0.6h-1.6
	c-0.9,0-1.6-0.2-2.2-0.6c-0.6-0.3-1.1-0.9-1.6-1.6c-0.4-0.6-0.7-1.4-0.8-2.4c-0.1-0.9-0.1-1.8,0.1-2.8l2.3-11.3c0.2-1,0.5-2,1-2.8
	c0.5-0.9,1.1-1.7,1.8-2.4c0.7-0.7,1.4-1.2,2.2-1.6c0.8-0.3,1.6-0.6,2.4-0.6h1.6c0.8,0,1.5,0.2,2.1,0.6c0.7,0.4,1.2,0.9,1.6,1.6
	c0.4,0.7,0.6,1.4,0.8,2.4c0.1,0.9,0.1,1.8-0.1,2.8l-1.2,5.9h-11l-1.1,5.5c-0.1,0.6-0.2,1.2-0.1,1.7c0.1,0.6,0.2,1,0.5,1.4
	c0.2,0.4,0.5,0.7,0.9,0.9c0.4,0.2,0.8,0.4,1.3,0.4h1.6c0.5,0,1-0.1,1.4-0.4c0.5-0.3,0.9-0.6,1.3-0.9c0.4-0.4,0.7-0.8,1-1.4
	c0.3-0.5,0.5-1.1,0.6-1.7l0.3-1.6l2.3,0.5l-0.2,1C771.4,427.1,771,428,770.6,428.9 M771.5,414.6c0.1-0.6,0.1-1.1,0-1.7
	c0-0.5-0.2-1-0.5-1.4c-0.2-0.4-0.6-0.7-0.9-0.9c-0.4-0.2-0.8-0.4-1.3-0.4h-1.6c-0.5,0-1,0.1-1.5,0.4c-0.4,0.3-0.9,0.5-1.3,0.9
	c-0.4,0.4-0.7,0.8-1,1.4c-0.3,0.6-0.5,1.1-0.6,1.7l-0.7,3.7h8.6L771.5,414.6z"/>
<path class="st0" d="M791.8,432.9l-0.8-2.6c-0.7,0.9-1.6,1.7-2.5,2.3c-0.9,0.5-1.9,0.8-2.9,0.8H785c-0.8,0-1.5-0.2-2.2-0.6
	c-0.6-0.3-1.1-0.9-1.6-1.6c-0.4-0.6-0.6-1.4-0.8-2.4c-0.1-0.9-0.1-1.8,0.1-2.8l2.2-11.3c0.2-1,0.5-2,1-2.8c0.5-0.9,1.1-1.7,1.7-2.4
	c0.7-0.7,1.4-1.2,2.2-1.6c0.8-0.3,1.6-0.6,2.4-0.6h0.6c0.9,0,1.7,0.2,2.4,0.7c0.6,0.5,1.2,1.1,1.6,1.9l2.4-12.1h2.4l-7,35.1H791.8z
	 M793.9,414.6c0.1-0.6,0.2-1.1,0.1-1.7c-0.1-0.5-0.2-1-0.4-1.4c-0.2-0.4-0.5-0.7-0.9-0.9c-0.4-0.2-0.8-0.4-1.3-0.4h-1.6
	c-0.5,0-1,0.1-1.4,0.4c-0.5,0.3-0.9,0.5-1.3,0.9c-0.4,0.4-0.8,0.8-1,1.4c-0.3,0.6-0.5,1.1-0.6,1.7l-2.3,11.6
	c-0.1,0.6-0.1,1.2-0.1,1.7c0.1,0.6,0.2,1,0.5,1.4c0.2,0.4,0.5,0.7,0.9,0.9c0.4,0.2,0.8,0.4,1.3,0.4h1.6c0.5,0,1-0.1,1.4-0.4
	c0.5-0.3,0.9-0.6,1.3-0.9c0.4-0.4,0.7-0.8,1-1.4c0.3-0.5,0.5-1.1,0.6-1.7L793.9,414.6z"/>
<path class="st0" d="M815.4,428.9c-0.5,0.9-1.1,1.7-1.7,2.4c-0.7,0.7-1.4,1.2-2.2,1.6c-0.8,0.4-1.6,0.6-2.4,0.6h-1.6
	c-0.8,0-1.6-0.2-2.2-0.6c-0.7-0.3-1.2-0.9-1.6-1.6c-0.4-0.6-0.6-1.4-0.8-2.4c-0.1-0.9-0.1-1.8,0.1-2.8l2.3-11.3c0.2-1,0.5-2,1-2.8
	c0.5-0.9,1.1-1.7,1.7-2.4c0.7-0.7,1.4-1.2,2.2-1.6c0.8-0.3,1.6-0.6,2.4-0.6h1.6c0.8,0,1.5,0.2,2.2,0.6c0.6,0.4,1.2,0.9,1.5,1.6
	c0.4,0.7,0.7,1.4,0.8,2.4c0.1,0.9,0.1,1.8-0.1,2.8l-1.1,5.9h-11l-1.1,5.5c-0.1,0.6-0.1,1.2-0.1,1.7c0.1,0.6,0.3,1,0.5,1.4
	c0.2,0.4,0.5,0.7,0.9,0.9c0.4,0.2,0.8,0.4,1.3,0.4h1.6c0.5,0,1-0.1,1.4-0.4c0.4-0.3,0.9-0.6,1.3-0.9c0.4-0.4,0.7-0.8,1-1.4
	c0.3-0.5,0.5-1.1,0.6-1.7l0.3-1.6l2.3,0.5l-0.2,1C816.2,427.1,815.9,428,815.4,428.9 M816.3,414.6c0.1-0.6,0.2-1.1,0.1-1.7
	c-0.1-0.5-0.2-1-0.5-1.4c-0.2-0.4-0.5-0.7-0.9-0.9c-0.4-0.2-0.8-0.4-1.3-0.4H812c-0.5,0-0.9,0.1-1.4,0.4c-0.5,0.3-0.9,0.5-1.3,0.9
	c-0.4,0.4-0.7,0.8-1,1.4c-0.3,0.6-0.5,1.1-0.6,1.7l-0.7,3.7h8.6L816.3,414.6z"/>
<path class="st0" d="M839.1,426.6c-0.2,1.1-0.6,2-1.1,2.8c-0.5,0.9-1.1,1.5-1.7,2.1c-0.7,0.6-1.4,1.1-2.2,1.4
	c-0.8,0.3-1.6,0.5-2.4,0.5H830c-0.8,0-1.5-0.2-2.2-0.6c-0.7-0.3-1.2-0.9-1.6-1.6c-0.5-0.6-0.7-1.4-0.9-2.4c-0.2-0.9-0.1-1.8,0.1-2.8
	l0.2-1l2.5-0.5l-0.3,1.7c-0.1,0.6-0.1,1.2,0,1.6c0.1,0.6,0.3,1,0.5,1.4c0.3,0.4,0.6,0.7,1,0.9c0.4,0.2,0.8,0.4,1.4,0.4h1.6
	c0.5,0,1-0.1,1.5-0.3c0.5-0.1,0.9-0.4,1.3-0.7c0.4-0.3,0.8-0.8,1.1-1.2c0.3-0.5,0.5-1,0.6-1.7c0.2-0.9,0.2-1.6,0-2.1
	c-0.2-0.6-0.5-1.1-1-1.5c-0.4-0.4-0.9-0.7-1.6-0.9c-0.6-0.3-1.2-0.5-1.9-0.7c-0.6-0.3-1.2-0.6-1.8-0.9c-0.6-0.3-1.1-0.7-1.5-1.3
	c-0.4-0.5-0.7-1.2-0.8-2c-0.1-0.8-0.1-1.8,0.1-3c0.2-1.1,0.5-1.9,1-2.8c0.5-0.8,1.1-1.5,1.7-2.1c0.6-0.7,1.3-1.1,2.1-1.5
	c0.7-0.3,1.6-0.5,2.4-0.5h1.4c0.8,0,1.5,0.2,2.2,0.6c0.6,0.4,1.2,0.9,1.6,1.6c0.4,0.7,0.7,1.4,0.8,2.4c0.1,0.9,0.1,1.8-0.1,2.8
	l0,0.1l-2.5,0.5l0.2-0.7c0.1-0.6,0.1-1.1,0.1-1.7c-0.1-0.5-0.3-1-0.5-1.4c-0.2-0.4-0.6-0.7-0.9-0.9c-0.4-0.2-0.8-0.4-1.3-0.4h-1.4
	c-0.5,0-0.9,0.1-1.4,0.3c-0.5,0.2-0.9,0.4-1.3,0.8c-0.4,0.4-0.7,0.8-1,1.3c-0.3,0.5-0.5,0.9-0.6,1.6c-0.2,0.9-0.2,1.6,0,2.1
	c0.2,0.5,0.5,1,1,1.4c0.4,0.4,1,0.7,1.6,1c0.6,0.2,1.2,0.5,1.9,0.7c0.6,0.3,1.2,0.6,1.8,0.9c0.6,0.4,1.1,0.8,1.5,1.3
	c0.4,0.5,0.7,1.2,0.8,2.1C839.4,424.4,839.3,425.4,839.1,426.6"/>
<g>
	<defs>
		<path id="SVGID_1_" d="M621.2,297.4h25.7c1.1,0,2.2,0.3,3.1,0.9c0.9,0.6,1.7,1.4,2.3,2.4c0.6,1,1.1,2.1,1.4,3.5
			c0.3,1.3,0.4,2.7,0.2,4.1c-0.4,3-1.5,5.6-3.3,7.8c-1.9,2.2-4,3.2-6.3,3.2h-25.6L621.2,297.4z M610.1,281.3l-10.3,91.5h12.8
			l3.8-34.1l43.2,36l2.1-19.1l-27.2-20.7h5.9c4.2,0,7.8-0.8,11-2.3c3.1-1.6,5.7-3.6,7.9-6.1c2.1-2.5,3.7-5.4,4.9-8.6
			c1.2-3.2,1.9-6.4,2.3-9.6c0.4-3.7,0.3-7.2-0.1-10.5c-0.5-3.2-1.6-6.1-3.2-8.5c-1.6-2.5-3.8-4.4-6.5-5.8c-2.7-1.4-6.1-2.1-10.2-2.1
			H610.1z"/>
	</defs>
	<clipPath id="SVGID_2_">
		<use xlink:href="#SVGID_1_"  style="overflow:visible;"/>
	</clipPath>
	
		<linearGradient id="SVGID_3_" gradientUnits="userSpaceOnUse" x1="-251.156" y1="1260.3542" x2="-249.0794" y2="1260.3542" gradientTransform="matrix(0 -44.9431 -44.9431 0 57277.6914 -10913.1221)">
		<stop  offset="0" style="stop-color:#009863"/>
		<stop  offset="1" style="stop-color:#46AB51"/>
	</linearGradient>
	<rect x="599.8" y="281.3" class="st1" width="67.2" height="93.3"/>
</g>
<g>
	<defs>
		<path id="SVGID_4_" d="M708.4,300c0.7-1.7,1.7-2.6,2.7-2.6h0.5c0.5,0,0.9,0.2,1.3,0.6c0.4,0.4,0.7,1.2,0.9,2.2l7.4,43.5h-30.4
			L708.4,300z M704.1,284.1c-2.7,1.9-4.8,4.9-6.4,8.9L666,372.7h13.6l5.2-13.1H724l2.3,13.1h13.6L726.1,293c-0.7-4-2.2-6.9-4.4-8.9
			c-2.3-2-5.1-2.9-8.5-2.9C709.8,281.2,706.8,282.1,704.1,284.1"/>
	</defs>
	<clipPath id="SVGID_5_">
		<use xlink:href="#SVGID_4_"  style="overflow:visible;"/>
	</clipPath>
	
		<linearGradient id="SVGID_6_" gradientUnits="userSpaceOnUse" x1="-250.9319" y1="1259.5638" x2="-248.8559" y2="1259.5638" gradientTransform="matrix(0 -44.1125 -44.1125 0 56265.4492 -10696.4951)">
		<stop  offset="0" style="stop-color:#009863"/>
		<stop  offset="1" style="stop-color:#46AB51"/>
	</linearGradient>
	<rect x="666" y="281.2" class="st2" width="73.9" height="91.6"/>
</g>
<g>
	<defs>
		<path id="SVGID_7_" d="M776.9,281.3c-4.1,0-7.7,0.7-10.7,2.1c-3.1,1.4-5.7,3.4-7.8,5.8c-2.2,2.5-3.9,5.3-5.1,8.5
			c-1.2,3.2-2,6.7-2.4,10.5c-0.3,3.1-0.3,6.2,0.1,9.4c0.5,3.1,1.4,6,3,8.5c1.5,2.6,3.7,4.7,6.4,6.2c2.8,1.6,6.3,2.4,10.5,2.4h20.6
			c2.3,0,4,1.1,5.2,3.2c1.3,2.2,1.7,4.7,1.4,7.7c-0.4,3.1-1.4,5.7-3.1,7.9c-1.7,2.2-3.7,3.3-6,3.3h-40l-1.8,15.9h37.6
			c7.3,0,13.2-2.2,17.8-6.7c4.6-4.5,7.3-11.2,8.3-20l0.1-0.6c1-8.9-0.3-15.5-3.9-20c-3.6-4.4-9-6.7-16.1-6.7h-20.3
			c-2.4,0-4.2-1.1-5.6-3.1c-1.4-2.1-1.9-4.6-1.6-7.6c0.1-1.5,0.5-2.8,1.2-4.1c0.6-1.3,1.3-2.4,2.2-3.4c0.8-0.9,1.8-1.8,2.8-2.3
			c1.1-0.5,2.2-0.8,3.3-0.8h38.5l1.8-16.1H776.9z"/>
	</defs>
	<clipPath id="SVGID_8_">
		<use xlink:href="#SVGID_7_"  style="overflow:visible;"/>
	</clipPath>
	
		<linearGradient id="SVGID_9_" gradientUnits="userSpaceOnUse" x1="-250.9054" y1="1258.8625" x2="-248.829" y2="1258.8625" gradientTransform="matrix(0 -44.0485 -44.0485 0 56231.3516 -10679.2676)">
		<stop  offset="0" style="stop-color:#009863"/>
		<stop  offset="1" style="stop-color:#46AB51"/>
	</linearGradient>
	<rect x="747.2" y="281.3" class="st3" width="66.2" height="91.5"/>
</g>
<g>
	<defs>
		<path id="SVGID_10_" d="M236.7,281.3c-4,0-7.5,0.7-10.5,2c-3.1,1.3-5.6,3.2-7.8,5.6c-2.1,2.4-3.9,5.2-5.1,8.6
			c-1.3,3.3-2.2,6.9-2.6,10.8c-0.3,3.2-0.1,6.6,0.7,10.1c0.8,3.5,2.5,6.2,5.1,8.4c-3,2.1-5.4,4.9-6.9,8.3c-1.6,3.4-2.6,7-3,10.7
			c-0.4,3.3-0.3,6.6,0.1,9.9c0.5,3.3,1.5,6.1,3,8.7c1.5,2.6,3.7,4.7,6.5,6.2c2.7,1.5,6.2,2.3,10.5,2.3H263l1.8-15.9h-38.4
			c-2.5,0-4.4-1.1-5.7-3.2c-1.3-2.1-1.8-4.9-1.4-8.2c0.2-1.4,0.5-2.8,1.2-4.1c0.6-1.3,1.3-2.4,2.2-3.4c0.9-0.9,1.8-1.7,2.9-2.3
			c1-0.5,2.1-0.8,3.3-0.8h38.5l1.8-16.1h-38.5c-2.5,0-4.4-1.1-5.7-3.1c-1.3-2.1-1.8-4.6-1.5-7.6c0.2-1.5,0.5-2.8,1.2-4.1
			c0.6-1.3,1.3-2.4,2.2-3.4c0.9-0.9,1.8-1.8,2.9-2.3c1.1-0.5,2.1-0.8,3.3-0.8h38.5l1.8-16.1H236.7z"/>
	</defs>
	<clipPath id="SVGID_11_">
		<use xlink:href="#SVGID_10_"  style="overflow:visible;"/>
	</clipPath>
	
		<linearGradient id="SVGID_12_" gradientUnits="userSpaceOnUse" x1="-250.9169" y1="1263.7344" x2="-248.8406" y2="1263.7344" gradientTransform="matrix(0 -44.0489 -44.0489 0 55905.7656 -10679.876)">
		<stop  offset="0" style="stop-color:#1370B2"/>
		<stop  offset="1" style="stop-color:#008DCC"/>
	</linearGradient>
	<rect x="206.1" y="281.3" class="st4" width="67.2" height="91.5"/>
</g>
<g>
	<defs>
		<path id="SVGID_13_" d="M283.7,281.3l-5.8,51.9c-0.7,6-0.6,11.4,0.2,16.3c0.8,4.8,2.4,9,4.7,12.5c2.4,3.4,5.4,6.1,9.3,8
			c3.8,1.9,8.4,2.8,13.8,2.8h21.9l1.8-15.9h-22.3c-6,0-10.5-2-13.4-6.2c-2.9-4.1-3.9-9.9-3.1-17.4l5.9-52H283.7z"/>
	</defs>
	<clipPath id="SVGID_14_">
		<use xlink:href="#SVGID_13_"  style="overflow:visible;"/>
	</clipPath>
	
		<linearGradient id="SVGID_15_" gradientUnits="userSpaceOnUse" x1="-250.9169" y1="1263.1603" x2="-248.8406" y2="1263.1603" gradientTransform="matrix(0 -44.0489 -44.0489 0 55944.1094 -10679.876)">
		<stop  offset="0" style="stop-color:#1370B2"/>
		<stop  offset="1" style="stop-color:#008DCC"/>
	</linearGradient>
	<rect x="277.1" y="281.3" class="st5" width="52.3" height="91.5"/>
</g>
<g>
	<defs>
		<path id="SVGID_16_" d="M379.5,281.3c-22.1,0-35,15.2-38.4,45.4l-0.1,0.4c-3.4,30.5,5.9,45.7,28.1,45.7h26.5l1.8-15.9h-29.8
			c-11.5,0-16.1-9.9-13.9-29.6c1.2-10.3,3.4-17.9,6.9-22.7c3.4-4.7,8-7.1,13.8-7.1h29.8l1.8-16.1H379.5z"/>
	</defs>
	<clipPath id="SVGID_17_">
		<use xlink:href="#SVGID_16_"  style="overflow:visible;"/>
	</clipPath>
	
		<linearGradient id="SVGID_18_" gradientUnits="userSpaceOnUse" x1="-250.9169" y1="1262.5575" x2="-248.8406" y2="1262.5575" gradientTransform="matrix(0 -44.0489 -44.0489 0 55986.1406 -10679.876)">
		<stop  offset="0" style="stop-color:#1370B2"/>
		<stop  offset="1" style="stop-color:#008DCC"/>
	</linearGradient>
	<rect x="337.6" y="281.3" class="st6" width="68.5" height="91.5"/>
</g>
<g>
	<defs>
		<path id="SVGID_19_" d="M422.7,327.2c1.2-10.3,3.4-17.9,6.8-22.7c3.4-4.7,8-7.1,13.8-7.1h12.1c5.7,0,9.8,2.4,12.1,7.1
			c2.3,4.8,2.9,12.4,1.8,22.7c-2.2,19.7-9,29.6-20.5,29.6h-12.3C425.1,356.8,420.5,346.9,422.7,327.2 M448.5,281.3
			c-22.2,0-35,15.2-38.5,45.4l-0.1,0.4c-3.4,30.5,5.9,45.7,28.1,45.7h5.8c22.1,0,35-15.2,38.4-45.7l0-0.4
			c3.2-30.3-6.2-45.4-28.3-45.4H448.5z"/>
	</defs>
	<clipPath id="SVGID_20_">
		<use xlink:href="#SVGID_19_"  style="overflow:visible;"/>
	</clipPath>
	
		<linearGradient id="SVGID_21_" gradientUnits="userSpaceOnUse" x1="-250.9169" y1="1261.8701" x2="-248.8406" y2="1261.8701" gradientTransform="matrix(0 -44.0489 -44.0489 0 56029.9766 -10679.876)">
		<stop  offset="0" style="stop-color:#1370B2"/>
		<stop  offset="1" style="stop-color:#008DCC"/>
	</linearGradient>
	<rect x="406.6" y="281.3" class="st7" width="78.8" height="91.5"/>
</g>
<g>
	<defs>
		<polygon id="SVGID_22_" points="153.1,254.2 151.1,262.5 175.8,262.5 163.8,366.4 176.8,366.4 187.5,262.5 217.6,262.5 
			219.3,254.2 		"/>
	</defs>
	<clipPath id="SVGID_23_">
		<use xlink:href="#SVGID_22_"  style="overflow:visible;"/>
	</clipPath>
	
		<linearGradient id="SVGID_24_" gradientUnits="userSpaceOnUse" x1="-252.8941" y1="1265.1099" x2="-250.8178" y2="1265.1099" gradientTransform="matrix(0 -54 -54 0 68501.1016 -13289.9219)">
		<stop  offset="0" style="stop-color:#1370B2"/>
		<stop  offset="1" style="stop-color:#008DCC"/>
	</linearGradient>
	<rect x="151.1" y="254.2" class="st8" width="68.2" height="112.1"/>
</g>
<g>
	<defs>
		<path id="SVGID_25_" d="M562.6,313.5c1.5,0,2.9,0.4,4.2,1.2c1.3,0.8,2.4,1.8,3.2,3.2c0.9,1.3,2.4,3.2,2.8,4.9
			c0.4,1.7,1.6,7.8,0.8,12.8c-1.3,7.9-4.8,12.5-7.2,15.4c-2.5,2.9-6.4,4-9.7,4l-41.1,0l4.3-41.4H562.6z M525.5,261h42.8
			c1.6,0,3,0.4,4.2,1.1c1.2,0.8,2.4,1.9,3.2,3.2c0.8,1.3,1.5,2.8,2,4.6c0.4,1.8,0.6,4.6,0.4,6.5c-0.1,8.3-2.4,14.2-5.8,16.8
			c-2.9,2.2-6.3,4-9.6,4h-40.9L525.5,261z M515.9,246.1l-5.6,51.1h-0.1v1.5l-6.2,56.2l-2.1,16.1h49.9c5.8,0,10.8-1,15-3.1
			c4.2-2.1,7.8-4.9,10.6-8.3c2.9-3.4,5.2-7.4,6.8-11.9c1.6-4.5,2.7-9,3.2-13.6c0.5-5,0.2-9.9-1-14.6c-1.2-4.7-3.6-8.5-7.2-11.3
			c4.2-2.9,7.5-6.7,9.7-11.5c2.3-4.7,3.7-9.3,4.2-13.8c0.6-5.2,0.6-10,0-14.5c-0.6-4.5-2-8.4-4.2-11.7c-2.1-3.3-5.1-5.9-8.9-7.8
			c-3.8-1.8-8.5-2.8-14.3-2.8H515.9z"/>
	</defs>
	<clipPath id="SVGID_26_">
		<use xlink:href="#SVGID_25_"  style="overflow:visible;"/>
	</clipPath>
	
		<linearGradient id="SVGID_27_" gradientUnits="userSpaceOnUse" x1="-253.8713" y1="1263.1085" x2="-251.7958" y2="1263.1085" gradientTransform="matrix(0 -60.2038 -60.2038 0 76591.7266 -14912.9775)">
		<stop  offset="0" style="stop-color:#009863"/>
		<stop  offset="1" style="stop-color:#46AB51"/>
	</linearGradient>
	<rect x="501.8" y="246.1" class="st9" width="91.9" height="125"/>
</g>
<g>
	<g>
		<defs>
			<rect id="SVGID_28_" x="39.3" y="248" width="61.9" height="169.2"/>
		</defs>
		<clipPath id="SVGID_29_">
			<use xlink:href="#SVGID_28_"  style="overflow:visible;"/>
		</clipPath>
		<path class="st10" d="M51,365.8l-9.7,36.4c0,0-3.4,10.7-1.4,13.9c2.5,4.1,16-5,16-5L81.3,397c0,0,9.3-4.9,11.3-15.6
			c2.1-10.6,7.9-53.1,7.9-53.1s4.3-29.5-9.2-44.9c-13.6-15.3-26.1-33-26.1-33s-3.3-4.6-6-1.1c-1.7,2.1-1.1,10.6-0.4,16
			c0.8,5.4-1.1,36.8-1.3,41.8C57.3,312,52.6,359.4,51,365.8"/>
	</g>
</g>
<g>
	<g>
		<defs>
			<rect id="SVGID_30_" x="-0.2" y="150.9" width="68.4" height="238.2"/>
		</defs>
		<clipPath id="SVGID_31_">
			<use xlink:href="#SVGID_30_"  style="overflow:visible;"/>
		</clipPath>
		<g class="st11">
			<defs>
				<path id="SVGID_32_" d="M5.2,163c0,0-2.7-11.5,0-12c3.7-0.8,9.7,10.4,12.4,13.9c5.6,7.6,25.2,33.6,24.8,33.2l15.6,20.2
					c0,0,8.6,11.7,9.8,30.5c1.4,21.8-0.9,64.4-3.4,83.5c-2.6,19.1-8.5,30.4-23.8,38.9c-15.3,8.6-35.4,17.7-35.4,17.7
					s-5.7,2.5-5.4-5.7C0.1,375,5.4,344.9,6,340c0.7-5.6,10.7-58.6,2.8-147.2C8.8,192.7,6.5,171,5.2,163"/>
			</defs>
			<clipPath id="SVGID_33_">
				<use xlink:href="#SVGID_32_"  style="overflow:visible;"/>
			</clipPath>
			
				<linearGradient id="SVGID_34_" gradientUnits="userSpaceOnUse" x1="-258.6809" y1="1282.1434" x2="-257.0188" y2="1282.1434" gradientTransform="matrix(41.1837 0 0 -41.1837 10653.2412 53074.1328)">
				<stop  offset="0" style="stop-color:#46AB51"/>
				<stop  offset="1" style="stop-color:#009863"/>
			</linearGradient>
			<rect x="-0.5" y="150.2" class="st12" width="69.7" height="241.1"/>
		</g>
	</g>
</g>
<g>
	<g>
		<defs>
			<rect id="SVGID_35_" x="82.3" y="243.8" width="45.1" height="132.4"/>
		</defs>
		<clipPath id="SVGID_36_">
			<use xlink:href="#SVGID_35_"  style="overflow:visible;"/>
		</clipPath>
		<g class="st13">
			<defs>
				<path id="SVGID_37_" d="M87.3,258.5c0,0,4.2,45.3,3.1,61.1c-1.1,15.7-5.1,41.9-6.2,45.8c-1.1,3.9-3,9.9-1.1,10.7
					c1.9,0.7,5.3-1.8,9.1-4c3.8-2.2,23.1-16.7,23.1-16.7s9.7-6.3,10.9-27.8c1.2-21.5,3.6-25-6.6-39.4
					c-10.2-14.4-26.9-37.1-26.9-37.1s-4.4-8.4-6.3-7.2c-2,1.2,0.1,4.9,0.4,6.9C87,252.6,87.3,258.5,87.3,258.5"/>
			</defs>
			<clipPath id="SVGID_38_">
				<use xlink:href="#SVGID_37_"  style="overflow:visible;"/>
			</clipPath>
			
				<linearGradient id="SVGID_39_" gradientUnits="userSpaceOnUse" x1="-255.7751" y1="1288.1893" x2="-254.1137" y2="1288.1893" gradientTransform="matrix(27.1456 0 0 -27.1456 7025.4058 35278.4219)">
				<stop  offset="0" style="stop-color:#008DCC"/>
				<stop  offset="0.2316" style="stop-color:#008DCC"/>
				<stop  offset="1" style="stop-color:#1370B2"/>
			</linearGradient>
			<rect x="81.2" y="242.7" class="st14" width="48.6" height="134.1"/>
		</g>
	</g>
</g>
</svg>
